<?xml version="1.0" standalone="no"?>
<!DOCTYPE svg PUBLIC "-//W3C//DTD SVG 20010904//EN"
 "http://www.w3.org/TR/2001/REC-SVG-20010904/DTD/svg10.dtd">
<svg version="1.0" xmlns="http://www.w3.org/2000/svg"
 width="512.000000pt" height="512.000000pt" viewBox="0 0 512.000000 512.000000"
 preserveAspectRatio="xMidYMid meet">
<metadata>
Created by potrace 1.14, written by Peter Selinger 2001-2017
</metadata>
<g transform="translate(0.000000,512.000000) scale(0.100000,-0.100000)"
fill="#000000" stroke="none">
<path d="M2415 4519 c-55 -3 -113 -9 -130 -13 -16 -3 -48 -8 -70 -12 -107 -15
-341 -88 -455 -142 -30 -14 -57 -26 -60 -27 -52 -16 -279 -156 -328 -202 -7
-7 -16 -13 -20 -13 -7 0 -55 -43 -157 -139 -67 -63 -147 -151 -176 -192 -13
-19 -29 -38 -36 -44 -25 -22 -137 -206 -189 -312 -83 -170 -161 -415 -179
-563 -4 -30 -10 -76 -14 -102 -8 -50 -6 -407 2 -443 3 -11 8 -40 12 -65 3 -25
8 -56 11 -70 2 -14 15 -68 28 -120 86 -337 263 -649 500 -885 101 -101 218
-205 230 -205 3 0 19 -11 34 -25 39 -34 198 -128 300 -176 154 -73 389 -148
517 -164 28 -4 77 -10 110 -15 60 -8 427 -5 475 3 14 3 45 8 70 12 140 20 374
94 520 163 393 187 745 536 928 922 80 167 160 421 176 558 3 28 9 76 13 105
12 97 6 368 -11 485 -64 427 -246 787 -556 1102 -157 160 -330 286 -522 381
-73 36 -316 129 -338 129 -8 0 -33 7 -56 15 -127 44 -410 68 -629 54z m365
-129 c25 -4 65 -10 90 -13 126 -15 348 -87 505 -164 82 -40 257 -144 280 -166
7 -6 26 -21 41 -32 41 -29 177 -157 238 -223 115 -125 229 -296 305 -457 33
-69 88 -212 96 -249 3 -10 13 -53 24 -95 39 -154 52 -262 51 -436 -1 -184 -8
-252 -41 -400 -12 -49 -22 -97 -24 -105 -9 -41 -70 -203 -106 -283 -90 -195
-257 -424 -408 -561 -19 -17 -46 -42 -61 -56 -14 -14 -60 -50 -101 -81 -187
-140 -400 -243 -625 -303 -85 -23 -105 -27 -199 -41 -22 -3 -48 -8 -58 -11
-30 -9 -329 -12 -397 -4 -129 15 -167 22 -284 51 -127 32 -258 80 -370 136
-73 37 -236 135 -258 156 -7 7 -38 31 -68 54 -86 67 -229 209 -304 302 -48 62
-149 220 -189 299 -132 260 -198 530 -200 822 -1 217 12 329 61 500 38 133 80
247 122 330 42 83 135 241 158 266 9 10 31 39 47 63 32 48 289 311 304 311 4
0 19 9 32 21 25 22 142 101 194 132 73 42 286 139 340 154 6 1 42 12 80 23 79
23 93 26 225 50 103 18 420 25 500 10z"/>
<path d="M2428 4005 c-2 -2 -25 -6 -52 -10 -107 -12 -281 -66 -355 -108 -87
-51 -105 -80 -77 -122 22 -34 55 -32 124 6 67 37 213 86 280 94 26 4 61 10 77
14 35 9 252 6 310 -4 81 -14 212 -57 293 -96 94 -46 130 -48 149 -9 25 54 -1
79 -152 146 -141 62 -295 92 -471 93 -67 0 -124 -2 -126 -4z"/>
<path d="M2499 3706 c-2 -2 -29 -6 -59 -9 -73 -8 -140 -22 -225 -46 -99 -29
-129 -71 -85 -119 26 -27 28 -27 130 3 46 14 104 28 129 31 25 3 71 9 102 13
109 14 283 2 419 -30 269 -62 472 -192 648 -414 31 -38 61 -73 66 -77 40 -28
103 23 86 68 -15 39 -88 133 -160 205 -194 196 -425 312 -715 359 -70 12 -327
24 -336 16z"/>
<path d="M1686 3635 c-34 -26 -23 -71 32 -134 96 -111 214 -188 337 -222 55
-15 225 -18 322 -6 131 16 148 18 162 23 7 2 68 7 135 10 254 13 449 -66 632
-258 128 -134 238 -332 268 -483 4 -16 9 -41 12 -55 7 -32 6 -227 0 -260 -3
-14 -8 -38 -12 -55 -14 -73 -77 -240 -130 -345 -67 -134 -199 -338 -296 -457
-77 -94 -87 -130 -43 -159 38 -25 70 -6 141 84 245 308 406 622 457 893 31
168 4 404 -66 561 -146 329 -446 596 -722 644 -22 4 -49 8 -60 10 -31 6 -215
5 -260 0 -22 -3 -78 -11 -125 -16 -47 -6 -101 -14 -120 -17 -49 -7 -188 -7
-232 0 -121 21 -204 75 -331 215 -40 45 -68 52 -101 27z"/>
<path d="M1504 3363 c-31 -6 -50 -47 -38 -81 8 -22 19 -29 64 -40 170 -41 256
-87 274 -149 21 -69 -67 -185 -194 -255 -96 -54 -165 -74 -262 -77 -44 -1 -68
-23 -68 -60 0 -44 28 -61 96 -61 185 0 452 156 524 306 28 57 37 147 20 199
-30 90 -188 187 -343 210 -23 4 -44 8 -47 9 -3 1 -14 0 -26 -1z"/>
<path d="M2575 3169 c-189 -17 -361 -97 -494 -230 -24 -24 -73 -82 -110 -129
-196 -254 -366 -363 -556 -356 -44 1 -90 -1 -102 -5 -52 -19 -49 -89 4 -110
38 -15 169 -14 234 1 69 16 191 73 249 117 80 60 170 153 264 272 103 129 140
165 218 214 307 193 680 113 887 -191 22 -34 41 -63 41 -66 0 -3 11 -29 24
-58 60 -132 71 -306 27 -435 -21 -62 -103 -214 -187 -343 -113 -177 -298 -409
-487 -614 -51 -54 -95 -106 -98 -115 -13 -34 23 -81 59 -75 6 1 16 2 22 3 29
4 337 356 478 546 144 195 292 447 330 560 71 212 25 482 -116 680 -168 236
-419 358 -687 334z"/>
<path d="M1515 3079 c-16 -5 -52 -11 -80 -14 -75 -8 -105 -52 -69 -103 14 -20
23 -23 72 -21 59 3 137 20 171 39 29 15 37 55 17 85 -18 27 -54 32 -111 14z"/>
<path d="M2588 2905 c-2 -1 -25 -5 -53 -8 -92 -10 -192 -53 -278 -120 -21 -16
-72 -73 -114 -126 -88 -112 -211 -236 -303 -304 -116 -87 -218 -143 -432 -235
-72 -31 -87 -83 -33 -118 23 -15 29 -14 97 11 99 38 274 127 356 183 150 101
306 245 392 362 90 122 155 173 269 211 142 46 301 2 407 -113 108 -116 134
-290 66 -440 -63 -138 -211 -372 -331 -523 -94 -117 -118 -144 -302 -326 -126
-126 -177 -182 -174 -195 2 -11 4 -22 4 -26 1 -4 12 -15 25 -23 32 -21 60 -9
132 57 324 297 573 615 734 938 45 89 55 116 67 180 42 223 -93 476 -302 569
-59 26 -214 58 -227 46z"/>
<path d="M2480 2641 c-103 -34 -156 -87 -260 -260 -117 -194 -223 -290 -485
-438 -49 -28 -126 -68 -170 -88 -44 -19 -86 -43 -92 -52 -32 -41 5 -106 54
-97 13 3 75 30 136 60 311 155 507 304 608 464 181 288 188 295 296 295 52 0
68 -5 105 -30 51 -36 88 -102 88 -160 0 -70 -102 -256 -240 -434 -145 -189
-346 -379 -553 -525 -72 -51 -86 -69 -81 -101 3 -22 39 -55 59 -55 37 0 290
199 441 347 187 183 348 397 450 599 41 80 47 100 47 155 0 70 -23 154 -53
191 -79 96 -142 130 -250 134 -41 2 -86 0 -100 -5z"/>
<path d="M2528 2359 c-10 -5 -43 -47 -73 -92 -30 -46 -63 -92 -73 -102 -10
-11 -24 -30 -33 -41 -51 -75 -237 -259 -355 -352 -59 -47 -210 -150 -259 -176
-85 -46 -103 -82 -64 -125 29 -31 58 -24 166 41 272 164 539 418 716 680 70
104 76 128 36 161 -24 19 -37 21 -61 6z"/>
</g>
</svg>
